<svg xmlns="http://www.w3.org/2000/svg" xmlns:xlink="http://www.w3.org/1999/xlink" width="128" zoomAndPan="magnify" viewBox="0 0 96 95.999999" height="128" preserveAspectRatio="xMidYMid meet" version="1.0" style="fill: none;"><rect x="-9.6" width="115.2" y="-9.6" height="115.199999" fill="none"/><rect x="-9.6" width="115.2" y="-9.6" height="115.199999" fill-opacity="1"/><path fill="#ffde59" d="M 34.835938 47.320312 L 33.472656 47.320312 L 33.472656 51.425781 L 34.835938 51.425781 C 37.683594 51.425781 40.015625 53.738281 40.015625 56.605469 C 40.015625 59.453125 37.703125 61.785156 34.835938 61.785156 L 16.632812 61.785156 C 16.488281 61.828125 16.363281 61.847656 16.199219 61.847656 L 6.808594 61.847656 L 6.808594 65.890625 L 34.835938 65.890625 C 39.953125 65.890625 44.121094 61.722656 44.121094 56.605469 C 44.121094 51.488281 39.953125 47.320312 34.835938 47.320312 Z M 34.835938 47.320312 " fill-opacity="1" fill-rule="nonzero"/><path fill="#ffde59" d="M 51.816406 32.851562 L 23.957031 32.851562 C 18.839844 32.851562 14.671875 37.023438 14.671875 42.140625 C 14.671875 47.257812 18.839844 51.425781 23.957031 51.425781 L 24.785156 51.425781 L 24.785156 47.320312 L 23.957031 47.320312 C 21.109375 47.320312 18.777344 45.007812 18.777344 42.140625 C 18.777344 39.292969 21.089844 36.960938 23.957031 36.960938 L 48.722656 36.960938 L 59.90625 65.890625 L 64.589844 65.890625 Z M 51.816406 32.851562 " fill-opacity="1" fill-rule="nonzero"/><path fill="#ffde59" d="M 59.578125 32.851562 L 72.351562 65.890625 L 77.015625 65.890625 L 64.242188 32.851562 Z M 59.578125 32.851562 " fill-opacity="1" fill-rule="nonzero"/><path fill="#ffde59" d="M 89.519531 29.714844 L 78.890625 52.601562 L 81.058594 58.171875 L 93.234375 32.851562 Z M 89.519531 29.714844 " fill-opacity="1" fill-rule="nonzero"/><path fill="#ffde59" d="M 4.683594 48 C 4.683594 24.082031 24.082031 4.683594 48 4.683594 C 68.800781 4.683594 86.15625 19.335938 90.34375 38.878906 L 93.421875 32.503906 C 86.960938 13.597656 69.070312 0 48 0 C 21.480469 0 0 21.480469 0 48 C 0 51.671875 0.433594 55.265625 1.21875 58.710938 L 6.027344 58.710938 C 5.136719 55.285156 4.683594 51.695312 4.683594 48 Z M 4.683594 48 " fill-opacity="1" fill-rule="nonzero"/><path fill="#ffde59" d="M 91.109375 43.789062 C 91.234375 45.171875 91.316406 46.574219 91.316406 48 C 91.316406 71.917969 71.917969 91.316406 48 91.316406 C 28.910156 91.316406 12.734375 78.976562 6.953125 61.847656 L 2.042969 61.847656 C 7.984375 81.597656 26.3125 96 48 96 C 74.519531 96 96 74.519531 96 48 C 96 44.078125 95.523438 40.28125 94.636719 36.648438 Z M 91.109375 43.789062 " fill-opacity="1" fill-rule="nonzero"/></svg>